# xmcd
#
# Track frame offsets: 
#        150
#        21374
#        38212
#        61275
#        87351
#        108503
#        126405
#        151530
#        181788
#        197938
#        218610
#        240083
#        252650
#        268949
#        292619
#
# Disc length: 4233 seconds
#
# Revision: 8
# Processed by: cddbd v1.5.2PL0 Copyright (c) Steve Scherf et al.
# Submitted via: ExactAudioCopy v1.0b1
#
DISCID=cc10870f
DTITLE=Various Artist - The Rough Guide To Salsa Dance
DYEAR=1999
DGENRE=Salsa
TTITLE0=José Alberto 'El Canario' - Me Dejó Picao
TTITLE1=Celia Cruz - El Negro Bembon
TTITLE2=La Misma Gente - Raquel
TTITLE3=Afro-Cuban All Stars - A Toda Cuba Le Gusta
TTITLE4=Charlie Palmieri - Al Que Le Pique
TTITLE5=La Sonora Ponceña - La Pollera Colora'
TTITLE6=Somos 21 (We are 21) - Roberto
TTITLE7=Jimmy Bosch - Descargarana
TTITLE8=Tambó - Coco My My
TTITLE9=Oscar D'Leon - Lloraras
TTITLE10=Miguelito Valdés w. Tito Puente Orchestra - Los Hermanos Pinz
TTITLE10=ones
TTITLE11=Joe Cuba - Préstame La Olla Teresa
TTITLE12=Sierra Maestra - Tibiri Tábara
TTITLE13=Son De La Loma - Mariana
TTITLE14=Willie Colón - La Murga
EXTD=YEAR: 1999
EXTT0=
EXTT1=
EXTT2=
EXTT3=
EXTT4=
EXTT5=
EXTT6=
EXTT7=
EXTT8=
EXTT9=
EXTT10=
EXTT11=
EXTT12=
EXTT13=
EXTT14=
PLAYORDER=
